<?xml version="1.0" encoding="utf-8" standalone="yes"?>
<!DOCTYPE svg PUBLIC "-//W3C//DTD SVG 1.1//EN" "http://www.w3.org/Graphics/SVG/1.1/DTD/svg11.dtd">
<svg width="853" height="848" viewBox="0 0 853 848" style="fill:none;stroke:none;fill-rule:evenodd;clip-rule:evenodd;stroke-linecap:round;stroke-linejoin:round;stroke-miterlimit:1.5;" version="1.1" xmlns="http://www.w3.org/2000/svg" xmlns:xlink="http://www.w3.org/1999/xlink"><style id="fontImports">@import url("https://fonts.googleapis.com/css2?family=Roboto:wght@400;700&amp;display=block");</style><rect id="" x="0" y="0" width="852.018" height="847.386" style="fill: #ffffff;"></rect><g id="items" style="isolation: isolate"><g id="blend" style="mix-blend-mode: normal"><g id="g-root-tf_1lz9c2z1ruun7t-fill" data-item-order="-718593" transform="translate(-9, -9)"><g id="tf_1lz9c2z1ruun7t-fill" stroke="none" fill="#ffffff"><g><path d="M 9.998942 10L 860.018942 10L 860.018942 855.39L 9.998942 855.39Z"></path></g></g></g><g id="g-root--1.cu_sy_dccsq31rkv0n7-fill" data-item-order="-572142" transform="translate(160, 231)"><g id="-1.cu_sy_dccsq31rkv0n7-fill" stroke="none" fill="#f5f5f5"><g><path d="M 100 10L 16 10L 10 82L 106 82L 100 10Z"></path></g></g></g><g id="g-root--1.cu_1_sy_1q6zt631rkuznw-fill" data-item-order="-572138" transform="translate(154, 303)"><g id="-1.cu_1_sy_1q6zt631rkuznw-fill" stroke="none" fill="#ffeceb"><g><path d="M 118 82L 112 10L 16 10.000008L 10 82L 118 82Z"></path></g></g></g><g id="g-root--1.cu_2_sy_1cvjasr1rkv18t-fill" data-item-order="-572134" transform="translate(148, 375)"><g id="-1.cu_2_sy_1cvjasr1rkv18t-fill" stroke="none" fill="#f5f5f5"><g><path d="M 130 82L 124 10.000015L 16 10L 10 82L 130 82Z"></path></g></g></g><g id="g-root--1.cu_3_sy_zkp9ij1rkuzny-fill" data-item-order="-572130" transform="translate(142, 447)"><g id="-1.cu_3_sy_zkp9ij1rkuzny-fill" stroke="none" fill="#ffeceb"><g><path d="M 142 82L 136 10.000015L 16 10L 10 82L 142 82Z"></path></g></g></g><g id="g-root--1.cu_4_sy_htf90r1rkv213-fill" data-item-order="-572126" transform="translate(136, 519)"><g id="-1.cu_4_sy_htf90r1rkv213-fill" stroke="none" fill="#f5f5f5"><g><path d="M 154 82L 148 10L 16 10L 10 82L 154 82Z"></path></g></g></g><g id="g-root--1.cu_5_sy_4il7qj1rkv0g8-fill" data-item-order="-572122" transform="translate(130, 591)"><g id="-1.cu_5_sy_4il7qj1rkv0g8-fill" stroke="none" fill="#ffeceb"><g><path d="M 166 82L 160 10L 16 10L 10 82L 166 82Z"></path></g></g></g><g id="g-root--1.cu_6_sy_1lsf97v1rkv2m9-fill" data-item-order="-572118" transform="translate(125, 663)"><g id="-1.cu_6_sy_1lsf97v1rkv2m9-fill" stroke="none" fill="#f5f5f5"><g><path d="M 10 70L 33.173 70L 45.173 82L 177 82L 171 10L 15 10L 10 70Z"></path></g></g></g><g id="g-root--1.cu_7_sy_zly7or1rkv1u2-fill" data-item-order="-572114" transform="translate(172, 87)"><g id="-1.cu_7_sy_zly7or1rkv1u2-fill" stroke="none" fill="#fffbda"><g><path d="M 82 100.00042L 82 52.000527L 634 10L 634 141.999992L 82 100.00042ZM 10 40.000031L 82 40.000031L 82 112.000031L 10 112.000031L 10 40.000031Z"></path></g></g></g><g id="g-root--1.cu_8_sy_hvaoa31rkv11f-fill" data-item-order="-572110" transform="translate(172, 189)"><g id="-1.cu_8_sy_hvaoa31rkv11f-fill" stroke="none" fill="#f5f5f5"><g><path d="M 10 10L 82 10L 82 28L 10 28L 10 10Z"></path></g></g></g><g id="g-root--1.cu_9_sy_4ju5wr1rkv2mc-fill" data-item-order="-572107" transform="translate(160, 75)"></g><g id="g-root--1.cu_10_sy_1cyno8b1rkv2f9-fill" data-item-order="-572106" transform="translate(154, 93)"><g id="-1.cu_10_sy_1cyno8b1rkv2f9-fill" stroke="none" fill="#ffeceb"><g><path d="M 16 34L 112 34L 64 10L 16 34ZM 16 136L 112 136L 106 148L 22 148L 16 136ZM 10 124L 118 124L 118 136L 10 136L 10 124Z"></path></g></g></g><g id="g-root--1.cu_11_sy_5w31n1rkv1n2-fill" data-item-order="-572104" transform="translate(40.8271484375, 723)"><g id="-1.cu_11_sy_5w31n1rkv1n2-fill" stroke="none" fill="#f5f5f5"><g><path d="M 45.173 46L 81.673 10L 117.173 10L 129.173 22L 297.173 22L 309.173 34L 333.173 34L 357.173 58L 411.917 58L 423.928 70C 423.58 70.4243 423.202 70.8141 422.795 71.1925C 419.784 73.9903 415.392 75.3778 411.009 75.3778C 406.627 75.3778 402.235 73.9789 399.224 71.1925C 398.826 70.8141 398.448 70.4243 398.101 70C 397.753 70.4243 397.375 70.8141 396.968 71.1925C 393.957 73.9903 389.555 75.3778 385.182 75.3778C 380.81 75.3778 376.408 73.9789 373.397 71.1925C 372.999 70.8141 372.621 70.4243 372.264 70C 371.916 70.4243 371.538 70.8141 371.141 71.1925C 368.13 73.9903 363.728 75.3778 359.355 75.3778C 354.983 75.3778 350.581 73.9789 347.57 71.1925C 347.172 70.8141 346.794 70.4243 346.437 70C 346.089 70.4243 345.711 70.8141 345.314 71.1925C 342.303 73.9903 337.901 75.3778 333.528 75.3778C 329.156 75.3778 324.754 73.9789 321.743 71.1925C 321.345 70.8141 320.967 70.4243 320.61 70C 320.262 70.4243 319.884 70.8141 319.487 71.1925C 316.476 73.9903 312.074 75.3778 307.701 75.3778C 303.329 75.3778 298.927 73.9789 295.916 71.1925C 295.518 70.8141 295.14 70.4243 294.783 70C 294.435 70.4243 294.057 70.8141 293.66 71.1925C 290.649 73.9903 286.247 75.3778 281.874 75.3778C 277.502 75.3778 273.1 73.9789 270.089 71.1925C 269.691 70.8141 269.313 70.4243 268.956 70C 268.608 70.4243 268.23 70.8141 267.823 71.1925C 264.812 73.9903 260.41 75.3778 256.037 75.3778C 251.665 75.3778 247.263 73.9789 244.252 71.1925C 243.854 70.8141 243.477 70.4243 243.119 70C 242.771 70.4243 242.393 70.8141 241.986 71.1925C 238.975 73.9903 234.189 75.3862 229.816 75.3862C 225.434 75.3862 220.911 73.9789 217.9 71.1925C 217.502 70.8141 217.124 70.4243 216.767 70C 216.419 70.4243 216.041 70.8141 215.634 71.1925C 212.623 73.9903 208.221 75.3778 203.848 75.3778C 199.476 75.3778 195.074 73.9789 192.063 71.1925C 191.665 70.8141 191.287 70.4243 190.94 70C 190.592 70.4243 190.214 70.8141 189.807 71.1925C 186.796 73.9903 182.404 75.3778 178.021 75.3778C 173.639 75.3778 169.247 73.9789 166.236 71.1925C 165.838 70.8141 165.46 70.4243 165.113 70C 164.765 70.4243 164.387 70.8141 163.98 71.1925C 160.969 73.9903 156.567 75.3778 152.194 75.3778C 147.822 75.3778 143.42 73.9789 140.409 71.1925C 140.011 70.8141 139.633 70.4243 139.276 70C 138.928 70.4243 138.55 70.8141 138.153 71.1925C 135.142 73.9903 130.74 75.3778 126.367 75.3778C 121.995 75.3778 117.593 73.9789 114.582 71.1925C 114.184 70.8141 113.806 70.4243 113.449 70C 113.101 70.4243 112.723 70.8141 112.326 71.1925C 109.3148 73.9903 104.9126 75.3778 100.5402 75.3778C 96.1678 75.3778 91.7656 73.9789 88.7546 71.1925C 88.3571 70.8141 87.9795 70.4243 87.6217 70C 87.2739 70.4243 86.8963 70.8141 86.4988 71.1925C 83.4878 73.9903 79.0856 75.3778 74.7132 75.3778C 70.3408 75.3778 65.9386 73.9789 62.9276 71.1925C 62.5301 70.8141 62.1525 70.4243 61.7947 70C 61.4469 70.4243 61.0693 70.8141 60.6718 71.1925C 57.6608 73.9903 53.2586 75.3778 48.8862 75.3778C 44.5138 75.3778 40.1116 73.9789 37.1006 71.1925C 36.7031 70.8141 36.3255 70.4243 35.9677 70C 35.6199 70.4243 35.2423 70.8141 34.8349 71.1925C 31.8239 73.9903 27.4217 75.3778 23.0493 75.3778C 18.6669 75.3778 14.1438 73.9789 11.1328 71.1925C 10.7354 70.8141 10.3577 70.4243 10 70L 33.173 46L 45.173 46Z"></path></g></g></g><g id="g-root--1.cu_12_sy_18kpld71rkv1fz-fill" data-item-order="-572101" transform="translate(15, 783)"></g><g id="g-root-tx_literatu_zitu971rkwetq-fill" data-item-order="0" transform="translate(340, 255)"><g id="tx_literatu_zitu971rkwetq-fill" stroke="none" fill="#484848"><g><text style="font: 20px Roboto, sans-serif; white-space: pre;" font-size="20px" font-family="Roboto, sans-serif"><tspan x="12" y="34" dominant-baseline="ideographic">Literature Review</tspan></text></g></g></g><g id="g-root-sear_v7cfhn1rv7apz-fill" data-item-order="0" transform="translate(184, 242.7939453125)"></g><g id="g-root-bala_zk1k6j1rv4hzc-fill" data-item-order="0" transform="translate(184, 314.7939453125)"></g><g id="g-root-tx_modeleva_1qf3zaj1rkv099-fill" data-item-order="0" transform="translate(340, 327)"><g id="tx_modeleva_1qf3zaj1rkv099-fill" stroke="none" fill="#484848"><g><text style="font: 20px Roboto, sans-serif; white-space: pre;" font-size="20px" font-family="Roboto, sans-serif"><tspan x="12" y="34" dominant-baseline="ideographic">Model Evaluation</tspan></text></g></g></g><g id="g-root-tx_research_m7dbvv1rkwgen-fill" data-item-order="0" transform="translate(340, 141)"><g id="tx_research_m7dbvv1rkwgen-fill" stroke="none" fill="#e0cb15"><g><text style="font: 20px Roboto, sans-serif; white-space: pre;" font-size="20px" font-family="Roboto, sans-serif"><tspan x="12" y="34" dominant-baseline="ideographic">Research Planning</tspan></text></g></g></g><g id="g-root-cube_dhxu971rut7gp-fill" data-item-order="0" transform="translate(184, 386.7939453125)"></g><g id="g-root-tx_hybridvs_dkgyuj1rkv18k-fill" data-item-order="0" transform="translate(340, 399)"><g id="tx_hybridvs_dkgyuj1rkv18k-fill" stroke="none" fill="#484848"><g><text style="font: 20px Roboto, sans-serif; white-space: pre;" font-size="20px" font-family="Roboto, sans-serif"><tspan x="12" y="34" dominant-baseline="ideographic">Hybrid vs Base Models</tspan></text></g></g></g><g id="g-root-chem_dgoz8r1runkea-fill" data-item-order="0" transform="translate(184, 128.7939453125)"></g><g id="g-root-cog_1hfot4b1rv7aq5-fill" data-item-order="0" transform="translate(184, 458.7939453125)"></g><g id="g-root-tx_innovati_146rii31rkv18j-fill" data-item-order="0" transform="translate(340, 471)"><g id="tx_innovati_146rii31rkv18j-fill" stroke="none" fill="#484848"><g><text style="font: 20px Roboto, sans-serif; white-space: pre;" font-size="20px" font-family="Roboto, sans-serif"><tspan x="12" y="34" dominant-baseline="ideographic">Innovative Development</tspan></text></g></g></g><g id="g-root-quil_1cuviaz1ruuln2-fill" data-item-order="0" transform="translate(184, 530.7939453125)"></g><g id="g-root-tx_writingi_1lxf1wr1rkv216-fill" data-item-order="0" transform="translate(340, 543)"><g id="tx_writingi_1lxf1wr1rkv216-fill" stroke="none" fill="#484848"><g><text style="font: 20px Roboto, sans-serif; white-space: pre;" font-size="20px" font-family="Roboto, sans-serif"><tspan x="12" y="34" dominant-baseline="ideographic">Writing in Overleaf</tspan></text></g></g></g><g id="g-root-edit_13zuz571rursi7-fill" data-item-order="0" transform="translate(184, 602.7939453125)"></g><g id="g-root-tx_refining_diljl71rkv289-fill" data-item-order="0" transform="translate(340, 615)"><g id="tx_refining_diljl71rkv289-fill" stroke="none" fill="#484848"><g><text style="font: 20px Roboto, sans-serif; white-space: pre;" font-size="20px" font-family="Roboto, sans-serif"><tspan x="12" y="34" dominant-baseline="ideographic">Refining Paper</tspan></text></g></g></g><g id="g-root-sear_4gpsh71rkwfm0-fill" data-item-order="0" transform="translate(184, 674.7939453125)"></g><g id="g-root-tx_finalrev_zpp27f1rkuzuo-fill" data-item-order="0" transform="translate(340, 687)"><g id="tx_finalrev_zpp27f1rkuzuo-fill" stroke="none" fill="#484848"><g><text style="font: 20px Roboto, sans-serif; white-space: pre;" font-size="20px" font-family="Roboto, sans-serif"><tspan x="12" y="34" dominant-baseline="ideographic">Final Review</tspan></text></g></g></g><g id="g-root-tx_achievin_4gone31ruunm1-fill" data-item-order="0" transform="translate(309.9999084472656, 15)"><g id="tx_achievin_4gone31ruunm1-fill" stroke="none" fill="#484848"><g><text style="font: 20px Roboto, sans-serif; white-space: pre;" font-size="20px" font-family="Roboto, sans-serif"><tspan x="15.17" y="34" dominant-baseline="ideographic">Water Quality Anomaly </tspan><tspan x="14.07" y="58" dominant-baseline="ideographic">Detection using ML/DL</tspan></text></g></g></g><g id="g-root-tf_1lz9c2z1ruun7t-stroke" data-item-order="-718593" transform="translate(-9, -9)"></g><g id="g-root--1.cu_sy_dccsq31rkv0n7-stroke" data-item-order="-572142" transform="translate(160, 231)"><g id="-1.cu_sy_dccsq31rkv0n7-stroke" fill="none" stroke-linecap="round" stroke-linejoin="round" stroke-miterlimit="4" stroke="#969696" stroke-width="2"><g><path d="M 16 10L 100 10L 106 82L 10 82L 16 10Z"></path></g></g></g><g id="g-root--1.cu_1_sy_1q6zt631rkuznw-stroke" data-item-order="-572138" transform="translate(154, 303)"><g id="-1.cu_1_sy_1q6zt631rkuznw-stroke" fill="none" stroke-linecap="round" stroke-linejoin="round" stroke-miterlimit="4" stroke="#e55753" stroke-width="2"><g><path d="M 112 10L 118 82L 10 82L 16 10L 112 10Z"></path></g></g></g><g id="g-root--1.cu_2_sy_1cvjasr1rkv18t-stroke" data-item-order="-572134" transform="translate(148, 375)"><g id="-1.cu_2_sy_1cvjasr1rkv18t-stroke" fill="none" stroke-linecap="round" stroke-linejoin="round" stroke-miterlimit="4" stroke="#969696" stroke-width="2"><g><path d="M 124 10L 130 82L 10 82L 16 10L 124 10Z"></path></g></g></g><g id="g-root--1.cu_3_sy_zkp9ij1rkuzny-stroke" data-item-order="-572130" transform="translate(142, 447)"><g id="-1.cu_3_sy_zkp9ij1rkuzny-stroke" fill="none" stroke-linecap="round" stroke-linejoin="round" stroke-miterlimit="4" stroke="#e55753" stroke-width="2"><g><path d="M 136 10L 142 82L 10 82L 16 10L 136 10Z"></path></g></g></g><g id="g-root--1.cu_4_sy_htf90r1rkv213-stroke" data-item-order="-572126" transform="translate(136, 519)"><g id="-1.cu_4_sy_htf90r1rkv213-stroke" fill="none" stroke-linecap="round" stroke-linejoin="round" stroke-miterlimit="4" stroke="#969696" stroke-width="2"><g><path d="M 148 10L 154 82L 10 82L 16 10L 148 10Z"></path></g></g></g><g id="g-root--1.cu_5_sy_4il7qj1rkv0g8-stroke" data-item-order="-572122" transform="translate(130, 591)"><g id="-1.cu_5_sy_4il7qj1rkv0g8-stroke" fill="none" stroke-linecap="round" stroke-linejoin="round" stroke-miterlimit="4" stroke="#e55753" stroke-width="2"><g><path d="M 160 10L 166 82L 10 82L 16 10L 160 10Z"></path></g></g></g><g id="g-root--1.cu_6_sy_1lsf97v1rkv2m9-stroke" data-item-order="-572118" transform="translate(125, 663)"><g id="-1.cu_6_sy_1lsf97v1rkv2m9-stroke" fill="none" stroke-linecap="round" stroke-linejoin="round" stroke-miterlimit="4" stroke="#969696" stroke-width="2"><g><path d="M 10 70L 33.173 70L 45.173 82L 177 82L 171 10L 15 10L 10 70Z"></path></g></g></g><g id="g-root--1.cu_7_sy_zly7or1rkv1u2-stroke" data-item-order="-572114" transform="translate(172, 87)"><g id="-1.cu_7_sy_zly7or1rkv1u2-stroke" fill="none" stroke-linecap="round" stroke-linejoin="round" stroke-miterlimit="4" stroke="#e0cb15" stroke-width="2"><g><path d="M 82 100.00042L 82 52.000527L 634 10L 634 141.999992L 82 100.00042ZM 10 40.000031L 82 40.000031L 82 112.000031L 10 112.000031L 10 40.000031Z"></path></g></g></g><g id="g-root--1.cu_8_sy_hvaoa31rkv11f-stroke" data-item-order="-572110" transform="translate(172, 189)"><g id="-1.cu_8_sy_hvaoa31rkv11f-stroke" fill="none" stroke-linecap="round" stroke-linejoin="round" stroke-miterlimit="4" stroke="#969696" stroke-width="2"><g><path d="M 10 10L 82 10L 82 28L 10 28L 10 10Z"></path></g></g></g><g id="g-root--1.cu_9_sy_4ju5wr1rkv2mc-stroke" data-item-order="-572107" transform="translate(160, 75)"><g id="-1.cu_9_sy_4ju5wr1rkv2mc-stroke" fill="none" stroke-linecap="round" stroke-linejoin="round" stroke-miterlimit="4" stroke="#969696" stroke-width="2"><g><path d="M 106 142L 106 124L 10 124L 10 142M 46 124L 46 142M 22 124L 22 142M 70 124L 70 142M 94 124L 94 142M 58 10L 58 28"></path></g></g></g><g id="g-root--1.cu_10_sy_1cyno8b1rkv2f9-stroke" data-item-order="-572106" transform="translate(154, 93)"><g id="-1.cu_10_sy_1cyno8b1rkv2f9-stroke" fill="none" stroke-linecap="round" stroke-linejoin="round" stroke-miterlimit="4" stroke="#e55753" stroke-width="2"><g><path d="M 16 34L 112 34L 64 10L 16 34ZM 16 136L 112 136L 106 148L 22 148L 16 136ZM 10 124L 118 124L 118 136L 10 136L 10 124Z"></path></g></g></g><g id="g-root--1.cu_11_sy_5w31n1rkv1n2-stroke" data-item-order="-572104" transform="translate(40.8271484375, 723)"><g id="-1.cu_11_sy_5w31n1rkv1n2-stroke" fill="none" stroke-linecap="round" stroke-linejoin="round" stroke-miterlimit="4" stroke="#969696" stroke-width="2"><g><path d="M 23.0493 75.3778C 27.4217 75.3778 31.8239 73.9903 34.8349 71.1925C 35.2423 70.8141 35.6199 70.4243 35.9677 70C 36.3255 70.4243 36.7031 70.8141 37.1006 71.1925C 40.1116 73.9789 44.5138 75.3778 48.8862 75.3778C 53.2586 75.3778 57.6608 73.9903 60.6718 71.1925C 61.0693 70.8141 61.4469 70.4243 61.7947 70C 62.1525 70.4243 62.5301 70.8141 62.9276 71.1925C 65.9386 73.9789 70.3408 75.3778 74.7132 75.3778C 79.0856 75.3778 83.4878 73.9903 86.4988 71.1925C 86.8963 70.8141 87.2739 70.4243 87.6217 70C 87.9795 70.4243 88.3571 70.8141 88.7546 71.1925C 91.7656 73.9789 96.1678 75.3778 100.5402 75.3778C 104.9126 75.3778 109.3148 73.9903 112.3258 71.1925C 112.7233 70.8141 113.1009 70.4243 113.4487 70C 113.8065 70.4243 114.1841 70.8141 114.5816 71.1925C 117.5926 73.9789 121.9948 75.3778 126.3672 75.3778C 130.7396 75.3778 135.1418 73.9903 138.1528 71.1925C 138.5503 70.8141 138.9279 70.4243 139.2757 70C 139.6335 70.4243 140.0111 70.8141 140.4086 71.1925C 143.4196 73.9789 147.8218 75.3778 152.1942 75.3778C 156.5666 75.3778 160.9688 73.9903 163.9798 71.1925C 164.3872 70.8141 164.7649 70.4243 165.1127 70C 165.4605 70.4243 165.8381 70.8141 166.2356 71.1925C 169.2466 73.9789 173.6388 75.3778 178.0212 75.3778C 182.4035 75.3778 186.7958 73.9903 189.8068 71.1925C 190.2143 70.8141 190.5919 70.4243 190.9397 70C 191.2875 70.4243 191.6651 70.8141 192.0626 71.1925C 195.0736 73.9789 199.4758 75.3778 203.8482 75.3778C 208.2206 75.3778 212.6228 73.9903 215.6338 71.1925C 216.0413 70.8141 216.4189 70.4243 216.7667 70C 217.1244 70.4243 217.502 70.8141 217.8995 71.1925C 220.9105 73.9789 225.4339 75.3862 229.8163 75.3862C 234.1887 75.3862 238.9749 73.9903 241.9859 71.1925C 242.3934 70.8141 242.771 70.4243 243.1188 70C 243.4765 70.4243 243.8541 70.8141 244.2516 71.1925C 247.2626 73.9789 251.6648 75.3778 256.0372 75.3778C 260.4096 75.3778 264.8119 73.9903 267.8229 71.1925C 268.2303 70.8141 268.6079 70.4243 268.9557 70C 269.3135 70.4243 269.6911 70.8141 270.0886 71.1925C 273.0995 73.9789 277.5018 75.3778 281.8742 75.3778C 286.2466 75.3778 290.6488 73.9903 293.6598 71.1925C 294.0573 70.8141 294.4349 70.4243 294.7827 70C 295.1404 70.4243 295.5181 70.8141 295.9156 71.1925C 298.9266 73.9789 303.3288 75.3778 307.7012 75.3778C 312.0736 75.3778 316.4758 73.9903 319.4868 71.1925C 319.8843 70.8141 320.2619 70.4243 320.6097 70C 320.9675 70.4243 321.3451 70.8141 321.7426 71.1925C 324.7536 73.9789 329.1558 75.3778 333.5282 75.3778C 337.9006 75.3778 342.3029 73.9903 345.3138 71.1925C 345.7113 70.8141 346.0889 70.4243 346.4367 70C 346.7945 70.4243 347.1721 70.8141 347.5696 71.1925C 350.5806 73.9789 354.9828 75.3778 359.3552 75.3778C 363.7276 75.3778 368.1298 73.9903 371.1408 71.1925C 371.5383 70.8141 371.9159 70.4243 372.2637 70C 372.6215 70.4243 372.9991 70.8141 373.3966 71.1925C 376.4076 73.9789 380.8098 75.3778 385.1822 75.3778C 389.5546 75.3778 393.9568 73.9903 396.9678 71.1925C 397.3752 70.8141 397.7529 70.4243 398.1006 70C 398.4485 70.4243 398.8261 70.8141 399.2236 71.1925C 402.2346 73.9789 406.6268 75.3778 411.0092 75.3778C 415.3915 75.3778 419.7839 73.9903 422.7949 71.1925C 423.2023 70.8141 423.5799 70.4243 423.9277 70L 411.9172 58L 357.173 58L 333.173 34L 309.173 34L 297.173 22L 129.173 22L 117.173 10L 81.673 10L 45.173 46L 33.173 46L 10 70C 10.3577 70.4243 10.7354 70.8141 11.1328 71.1925C 14.1438 73.9789 18.6669 75.3778 23.0493 75.3778ZM 23.0493 75.3778L 23.0492 75.3862M 129.15918 22.027344L 141.23978 34.107944L 153.17818 34.107944L 165.32958 46.259344M 45.448731 46.0463L 69.467331 46.0463L 81.263631 34.25M 165.672831 70.0005L 189.627031 46.0463L 213.589531 46.0463L 225.506831 57.9636M 309.537031 34.25L 297.740631 46.0463L 285.443331 46.0463L 273.526031 57.9636"></path></g></g></g><g id="g-root--1.cu_12_sy_18kpld71rkv1fz-stroke" data-item-order="-572101" transform="translate(15, 783)"><g id="-1.cu_12_sy_18kpld71rkv1fz-stroke" fill="none" stroke-linecap="round" stroke-linejoin="round" stroke-miterlimit="4" stroke="#1eabda" stroke-width="2"><g><path d="M 48.8763 15.3778C 53.2487 15.3778 57.6509 13.9903 60.6619 11.1925C 61.0693 10.8141 61.4469 10.4243 61.7948 10C 62.1525 10.4243 62.5301 10.8141 62.9276 11.1925C 65.9386 13.9789 70.3408 15.3778 74.7132 15.3778C 79.0856 15.3778 83.4878 13.9903 86.4988 11.1925C 86.8963 10.8141 87.274 10.4243 87.6218 10C 87.9795 10.4243 88.3571 10.8141 88.7546 11.1925C 91.7656 13.9789 96.1678 15.3778 100.5402 15.3778C 104.9126 15.3778 109.3148 13.9903 112.3259 11.1925C 112.7233 10.8141 113.101 10.4243 113.4488 10C 113.8065 10.4243 114.1841 10.8141 114.5816 11.1925C 117.5926 13.9789 121.9948 15.3778 126.3672 15.3778C 130.7396 15.3778 135.1419 13.9903 138.1528 11.1925C 138.5503 10.8141 138.9279 10.4243 139.2758 10C 139.6335 10.4243 140.0111 10.8141 140.4086 11.1925C 143.4196 13.9789 147.8218 15.3778 152.1942 15.3778C 156.5666 15.3778 160.9688 13.9903 163.9798 11.1925C 164.3773 10.8141 164.755 10.4243 165.1028 10C 165.4605 10.4243 165.8381 10.8141 166.2356 11.1925C 169.2466 13.9789 173.6488 15.3778 178.0212 15.3778C 182.3936 15.3778 186.7958 13.9903 189.8068 11.1925C 190.2143 10.8141 190.5919 10.4243 190.9397 10C 191.2875 10.4243 191.6651 10.8141 192.0626 11.1925C 195.0736 13.9789 199.4659 15.3778 203.8482 15.3778C 208.2305 15.3778 212.6229 13.9903 215.6339 11.1925C 216.0413 10.8141 216.4189 10.4243 216.7667 10C 217.1145 10.4243 217.4921 10.8141 217.8896 11.1925C 220.9006 13.9789 225.3028 15.3778 229.6752 15.3778C 234.0477 15.3778 238.4499 13.9903 241.4609 11.1925C 241.8683 10.8141 242.2459 10.4243 242.5937 10C 242.9515 10.4243 243.3291 10.8141 243.7266 11.1925C 246.7376 13.9789 251.2609 15.3862 255.6433 15.3862C 260.0157 15.3862 264.802 13.9903 267.813 11.1925C 268.2204 10.8141 268.598 10.4243 268.9458 10C 269.3035 10.4243 269.6812 10.8141 270.0786 11.1925C 273.0896 13.9789 277.4919 15.3778 281.8643 15.3778C 286.2367 15.3778 290.6389 13.9903 293.6499 11.1925C 294.0573 10.8141 294.4349 10.4243 294.7827 10C 295.1405 10.4243 295.5181 10.8141 295.9156 11.1925C 298.9266 13.9789 303.3288 15.3778 307.7012 15.3778C 312.0736 15.3778 316.4758 13.9903 319.4868 11.1925C 319.8843 10.8141 320.2619 10.4243 320.6097 10C 320.9675 10.4243 321.3451 10.8141 321.7426 11.1925C 324.7536 13.9789 329.1558 15.3778 333.5282 15.3778C 337.9006 15.3778 342.3029 13.9903 345.3138 11.1925C 345.7113 10.8141 346.089 10.4243 346.4368 10C 346.7945 10.4243 347.1721 10.8141 347.5696 11.1925C 350.5806 13.9789 354.9828 15.3778 359.3552 15.3778C 363.7276 15.3778 368.1299 13.9903 371.1409 11.1925C 371.5384 10.8141 371.916 10.4243 372.2638 10C 372.6215 10.4243 372.9991 10.8141 373.3966 11.1925C 376.4076 13.9789 380.8098 15.3778 385.1823 15.3778C 389.5547 15.3778 393.9568 13.9903 396.9678 11.1925C 397.3653 10.8141 397.743 10.4243 398.0908 10C 398.4485 10.4243 398.8261 10.8141 399.2236 11.1925C 402.2346 13.9789 406.6368 15.3778 411.0092 15.3778C 415.3816 15.3778 419.7838 13.9903 422.7948 11.1925C 423.2023 10.8141 423.5799 10.4243 423.9277 10C 424.2755 10.4243 424.6531 10.8141 425.0506 11.1925C 428.0616 13.9789 432.4539 15.3778 436.8362 15.3778C 441.2186 15.3778 445.6109 13.9903 448.6219 11.1925C 449.0293 10.8141 449.4069 10.4243 449.7547 10C 450.1025 10.4243 450.4801 10.8141 450.8776 11.1925C 453.8886 13.9789 458.2908 15.3778 462.6632 15.3778C 467.0356 15.3778 471.4379 13.9903 474.4489 11.1925C 474.8563 10.8141 475.2339 10.4243 475.5817 10C 475.9395 10.4243 476.317 10.8141 476.7145 11.1925C 479.7255 13.9789 484.2486 15.3862 488.6309 15.3862C 493.0033 15.3862 497.7894 13.9903 500.8004 11.1925C 501.2079 10.8141 501.5854 10.4243 501.9333 10C 502.291 10.4243 502.6686 10.8141 503.0661 11.1925C 506.0771 13.9789 510.4793 15.3778 514.8517 15.3778C 519.2241 15.3778 523.6263 13.9903 526.6373 11.1925C 527.0447 10.8141 527.4224 10.4243 527.7702 10C 528.1279 10.4243 528.5056 10.8141 528.9031 11.1925C 531.9141 13.9789 536.3163 15.3778 540.6887 15.3778C 545.061 15.3778 549.4633 13.9903 552.4743 11.1925C 552.8718 10.8141 553.2494 10.4243 553.5972 10C 553.955 10.4243 554.3325 10.8141 554.73 11.1925C 557.741 13.9789 562.1433 15.3778 566.5157 15.3778C 570.8881 15.3778 575.2903 13.9903 578.3013 11.1925C 578.6987 10.8141 579.0764 10.4243 579.4242 10C 579.7819 10.4243 580.1595 10.8141 580.5571 11.1925C 583.5681 13.9789 587.9702 15.3778 592.3427 15.3778C 596.7151 15.3778 601.1173 13.9903 604.1283 11.1925C 604.5258 10.8141 604.9034 10.4243 605.2512 10C 605.6089 10.4243 605.9866 10.8141 606.384 11.1925C 609.395 13.9789 613.7973 15.3778 618.1697 15.3778C 622.5421 15.3778 626.9443 13.9903 629.9553 11.1925C 630.3528 10.8141 630.7305 10.4243 631.0782 10C 631.436 10.4243 631.8136 10.8141 632.2111 11.1925C 635.222 13.9789 639.6243 15.3778 643.9967 15.3778C 648.3691 15.3778 652.7713 13.9903 655.7823 11.1925C 656.1897 10.8141 656.5674 10.4243 656.9152 10C 657.2629 10.4243 657.6406 10.8141 658.0381 11.1925C 661.0491 13.9789 665.4413 15.3778 669.8237 15.3778C 674.206 15.3778 678.5983 13.9903 681.6093 11.1925C 682.0167 10.8141 682.3944 10.4243 682.7422 10C 683.09 10.4243 683.4676 10.8141 683.8651 11.1925C 686.8761 13.9789 691.2784 15.3778 695.6508 15.3778C 700.0232 15.3778 704.4253 13.9903 707.4363 11.1925C 707.8438 10.8141 708.2214 10.4243 708.5692 10C 708.927 10.4243 709.3045 10.8141 709.702 11.1925C 712.713 13.9789 717.2361 15.3778 721.6185 15.3778M 48.8763 15.3778C 44.4939 15.3778 39.9709 13.9789 36.9599 11.1925C 36.5624 10.8141 36.1848 10.4243 35.827 10C 35.4792 10.4243 35.1016 10.8141 34.6942 11.1925C 31.6832 13.9903 27.281 15.3778 22.9086 15.3778C 18.5361 15.3778 14.1339 13.9789 11.1229 11.1925C 10.7254 10.8141 10.3478 10.4243 10 10M 48.8763 15.3778L 48.8762 15.3862M 812.0179 10C 811.6701 10.4243 811.2925 10.8141 810.895 11.1925C 807.884 13.9903 803.4818 15.3778 799.1094 15.3778C 794.737 15.3778 790.3348 13.9789 787.3238 11.1925C 786.9263 10.8141 786.5487 10.4243 786.191 10C 785.8432 10.4243 785.4655 10.8141 785.0681 11.1925C 782.0571 13.9903 777.6548 15.3778 773.2824 15.3778C 768.91 15.3778 764.5078 13.9789 761.4968 11.1925C 761.0993 10.8141 760.7217 10.4243 760.364 10C 760.0162 10.4243 759.6385 10.8141 759.241 11.1925C 756.23 13.9903 751.8278 15.3778 747.4554 15.3778C 743.083 15.3778 738.6808 13.9789 735.6698 11.1925C 735.2723 10.8141 734.8947 10.4243 734.5369 10C 734.1891 10.4243 733.8115 10.8141 733.4041 11.1925C 730.3931 13.9903 725.9909 15.3778 721.6185 15.3778M 721.6185 15.3778L 721.6184 15.3862"></path></g></g></g><g id="g-root-tx_literatu_zitu971rkwetq-stroke" data-item-order="0" transform="translate(340, 255)"></g><g id="g-root-sear_v7cfhn1rv7apz-stroke" data-item-order="0" transform="translate(184, 242.7939453125)"><g id="sear_v7cfhn1rv7apz-stroke" fill="none" stroke-linecap="round" stroke-linejoin="round" stroke-miterlimit="4" stroke="#969696" stroke-width="2"><g><path d="M 35 44.057999C 35 49.060593 39.055405 53.115997 44.057999 53.115997C 49.060593 53.115997 53.115997 49.060593 53.115997 44.057999C 53.115997 39.055405 49.060593 35 44.057999 35C 39.055405 35 35 39.055405 35 44.057999ZM 57 57L 50.504002 50.504002M 19 27L 38 27M 19 33L 31 33M 19 21L 33 21M 19 39L 27 39M 19 45L 27 45M 35 57L 13 57C 11.895431 57 11 56.104568 11 55L 11 13C 11 11.895431 11.895431 11 13 11L 39.585999 11C 40.11639 11.000113 40.625015 11.210901 41 11.586L 48.414001 19C 48.789101 19.374985 48.999886 19.88361 49 20.414L 49 29"></path></g></g></g><g id="g-root-bala_zk1k6j1rv4hzc-stroke" data-item-order="0" transform="translate(184, 314.7939453125)"><g id="bala_zk1k6j1rv4hzc-stroke" fill="none" stroke-linecap="round" stroke-linejoin="round" stroke-miterlimit="4" stroke="#e55753" stroke-width="2"><g><path d="M 25.5 39.099998C 25.5 40.299999 24.700001 41.099998 23.5 41.099998L 13.5 41.099998C 12.3 41.099998 11.5 40.299999 11.5 39.099998L 11.5 29.1001C 11.5 27.900101 12.3 27.1001 13.5 27.1001L 23.5 27.1001C 24.700001 27.1001 25.5 27.900101 25.5 29.1001L 25.5 39.099998ZM 56.5 37.5C 56.5 38.700001 55.700001 39.5 54.5 39.5L 47.5 39.5C 46.299999 39.5 45.5 38.700001 45.5 37.5L 45.5 30.5C 45.5 29.299999 46.299999 28.5 47.5 28.5L 54.5 28.5C 55.700001 28.5 56.5 29.299999 56.5 30.5L 56.5 37.5ZM 56.5 20.5C 56.5 21.700001 55.700001 22.5 54.5 22.5L 47.5 22.5C 46.299999 22.5 45.5 21.700001 45.5 20.5L 45.5 13.5C 45.5 12.3 46.299999 11.5 47.5 11.5L 54.5 11.5C 55.700001 11.5 56.5 12.3 56.5 13.5L 56.5 20.5ZM 56.5 54.5C 56.5 55.700001 55.700001 56.5 54.5 56.5L 47.5 56.5C 46.299999 56.5 45.5 55.700001 45.5 54.5L 45.5 47.5C 45.5 46.299999 46.299999 45.5 47.5 45.5L 54.5 45.5C 55.700001 45.5 56.5 46.299999 56.5 47.5L 56.5 54.5ZM 24.476799 27.3125L 39.299999 17.5M 10 10M 25.5 34.099998L 39.5 34.099998M 10 10M 35.099998 29.5L 39.5 34.099998L 35.099998 38.5M 10 10M 33.299999 16.1001L 39.5 17.500099L 38.099998 23.700081M 10 10M 24.476799 40.887199L 39.299999 50.699799M 10 10M 33.299999 52.099998L 39.5 50.700001L 38.099998 44.5"></path></g></g></g><g id="g-root-tx_modeleva_1qf3zaj1rkv099-stroke" data-item-order="0" transform="translate(340, 327)"></g><g id="g-root-tx_research_m7dbvv1rkwgen-stroke" data-item-order="0" transform="translate(340, 141)"></g><g id="g-root-cube_dhxu971rut7gp-stroke" data-item-order="0" transform="translate(184, 386.7939453125)"><g id="cube_dhxu971rut7gp-stroke" fill="none" stroke-linecap="round" stroke-linejoin="round" stroke-miterlimit="4" stroke="#969696" stroke-width="2"><g><path d="M 26 34C 27.10457 34 28 33.104568 28 32L 28 17.327999C 27.999887 16.797611 27.789099 16.288986 27.414 15.914L 23.086 11.586C 22.711014 11.210901 22.202389 11.000113 21.672001 11L 13 11C 11.895431 11 11 11.895431 11 13L 11 32C 11 33.104568 11.895431 34 13 34ZM 36 43L 50 43L 50 57L 36 57ZM 50 57L 57 50L 57 36L 43 36L 36 43M 50 43L 57 36M 52 24C 48.861038 19.132793 43.463615 16.194496 37.672001 16.200001L 34.573997 16.200001M 39.222 11.544L 34.573997 16.194L 39.222 20.841999M 12 42C 15.138965 46.86721 20.536388 49.805504 26.328001 49.800003L 29.426001 49.799999M 24.778 54.456001L 29.426001 49.806L 24.778 45.158001"></path></g></g></g><g id="g-root-tx_hybridvs_dkgyuj1rkv18k-stroke" data-item-order="0" transform="translate(340, 399)"></g><g id="g-root-chem_dgoz8r1runkea-stroke" data-item-order="0" transform="translate(184, 128.7939453125)"><g id="chem_dgoz8r1runkea-stroke" fill="none" stroke-linecap="round" stroke-linejoin="round" stroke-miterlimit="4" stroke="#969696" stroke-width="2"><g><path d="M 36.599998 18.70002L 26.6001 18.70002M 10 10M 25.000179 29.5L 28.60022 24.70002L 28.60022 18.70002L 34.600201 18.70002L 34.600201 24.70002L 38.200199 29.5C 39.200199 30.9 38.200199 32.700001 36.600201 32.700001L 26.60022 32.700001C 25.000221 32.700001 24.20018 30.700001 25.000179 29.5ZM 46.5 42.900002C 46.5 42.900002 45.5 40.099998 37.900002 39.700001C 37.099998 39.700001 36.5 40.099998 36.5 40.700001L 36.5 52.299999C 36.5 52.900002 37.099998 53.299999 37.700001 53.299999C 45.5 53.5 46.5 56.5 46.5 56.5L 46.5 42.900002ZM 46.5 42.900002C 46.5 42.900002 47.5 40.099998 55.099998 39.700001C 55.900002 39.700001 56.5 40.099998 56.5 40.700001L 56.5 52.299999C 56.5 52.900002 55.900002 53.299999 55.299999 53.299999C 47.5 53.5 46.5 56.5 46.5 56.5M 52.700001 34.299999L 52.700001 14.3C 52.700001 12.7 51.5 11.5 49.900002 11.5L 14.29996 11.5C 12.69996 11.5 11.499969 12.7 11.499969 14.3L 11.499969 41.700001C 11.499969 43.299999 12.69996 44.5 14.29996 44.5L 29.8999 44.5M 10 10M 27.299801 44.5L 25.89982 52.5M 29.3999 52.5L 23.89996 52.5"></path></g></g></g><g id="g-root-cog_1hfot4b1rv7aq5-stroke" data-item-order="0" transform="translate(184, 458.7939453125)"><g id="cog_1hfot4b1rv7aq5-stroke" fill="none" stroke-linecap="round" stroke-linejoin="round" stroke-miterlimit="4" stroke="#e55753" stroke-width="2"><g><path d="M 37.799999 45.1278L 37.799999 49.474998C 37.799999 51.474998 36.200001 53.275002 34 53.275002M 34 53.275002C 31.799999 53.275002 30.200001 51.674999 30.200001 49.474998L 30.200001 45.1278M 34 53.275002L 34 56.275002M 44 35.875C 44 41.3978 39.5228 45.875 34 45.875C 28.47716 45.875 24 41.3978 24 35.875C 24 30.3522 28.47716 25.875061 34 25.875061C 39.5228 25.875061 44 30.3522 44 35.875ZM 46.359798 46.360001C 47.292599 45.6604 48.225399 45.194 49.391602 45.194L 52.189999 45.4272C 53.822399 45.6604 55.2216 44.4944 55.9212 43.095001C 56.6208 41.462601 56.154598 39.8302 54.9884 38.6642L 52.889599 36.798401C 52.189999 36.098801 51.723598 35.166 51.723598 34C 51.723598 33.0672 52.189999 31.901199 52.889599 31.201599L 54.9884 29.335899C 56.154598 28.169861 56.6208 26.30418 55.9212 24.90494C 55.2216 23.505699 53.822399 22.57288 52.189999 22.57288L 49.391602 22.806099C 48.225399 22.806099 47.059399 22.33968 46.359798 21.64006C 45.660198 20.707241 45.193802 19.774399 45.193802 18.608379L 45.426998 15.8099C 45.660198 14.17746 44.494202 12.7782 43.095001 12.07858C 41.462402 11.378968 39.830002 11.845402 38.664001 13.01144L 36.798401 15.11028C 36.098801 15.8099 35.166 16.27632 33.999802 16.27632C 32.833801 16.27632 31.901199 15.8099 31.201401 15.11028L 29.335859 13.01144C 28.169821 11.845402 26.537399 11.378968 24.904961 12.07858C 23.50572 12.7782 22.33968 14.17746 22.57288 15.8099L 22.806099 18.608379C 22.806099 19.774399 22.339699 20.707241 21.640079 21.64006C 20.94046 22.33968 19.77438 22.806099 18.608341 22.806099L 15.809919 22.57288C 14.17746 22.57288 12.77822 23.505699 12.0786 24.90494C 11.378976 26.30418 11.845374 28.169861 13.0114 29.335899L 15.11026 31.201599C 15.809879 31.901199 16.276279 33.0672 16.276279 34C 16.276279 35.166 15.809879 36.098801 15.11026 36.798401L 13.0114 38.6642C 11.845374 39.8302 11.378976 41.462601 12.0786 43.095001C 12.77822 44.4944 14.17746 45.6604 15.809919 45.4272L 18.608341 45.194C 19.77438 45.194 20.707241 45.6604 21.640079 46.360001"></path></g></g></g><g id="g-root-tx_innovati_146rii31rkv18j-stroke" data-item-order="0" transform="translate(340, 471)"></g><g id="g-root-quil_1cuviaz1ruuln2-stroke" data-item-order="0" transform="translate(184, 530.7939453125)"><g id="quil_1cuviaz1ruuln2-stroke" fill="none" stroke-linecap="round" stroke-linejoin="round" stroke-miterlimit="4" stroke="#969696" stroke-width="2"><g><path d="M 27.18 57L 13.18 57C 12.07543 57 11.18 56.104568 11.18 55L 11.18 13C 11.18 11.895431 12.07543 11 13.18 11L 39.765999 11C 40.296391 11.000113 40.805016 11.210901 41.18 11.586L 48.599998 19C 48.975098 19.374985 49.185886 19.88361 49.186001 20.414L 49.186001 27M 17.18 27.542L 19.346001 29.705999C 19.553581 29.913752 19.841993 30.019751 20.134705 29.995872C 20.427418 29.971992 20.694836 29.82065 20.866001 29.582001L 25.18 23.542M 31.18 27L 39.18 27M 17.18 37.542L 19.346001 39.706001C 19.553581 39.91375 19.841993 40.019753 20.134705 39.995872C 20.427418 39.971992 20.694836 39.820648 20.866001 39.582001L 25.18 33.542M 31.18 37L 34.18 37M 31.18 57L 45.998001 42.181999M 42.284 36.038002C 40.624001 36.237999 31.384001 45.023998 37.216 50.852001C 39.251999 52.889999 43.801998 52.568001 49.285999 47.088001C 53.486 42.877998 55.886002 35.650002 56.782001 32.517998C 56.873272 32.184708 56.785995 31.827909 56.551186 31.574377C 56.316372 31.320845 55.967304 31.206512 55.627998 31.271999C 52.626179 31.848417 49.692883 32.737251 46.875999 33.924C 46.875999 33.924 45.602001 39.870003 42.276001 39.870003Z"></path></g></g></g><g id="g-root-tx_writingi_1lxf1wr1rkv216-stroke" data-item-order="0" transform="translate(340, 543)"></g><g id="g-root-edit_13zuz571rursi7-stroke" data-item-order="0" transform="translate(184, 602.7939453125)"><g id="edit_13zuz571rursi7-stroke" fill="none" stroke-linecap="round" stroke-linejoin="round" stroke-miterlimit="4" stroke="#e55753" stroke-width="2"><g><path d="M 27 57L 13 57C 11.895431 57 11 56.104568 11 55L 11 13C 11 11.895431 11.895431 11 13 11L 39.585999 11C 40.11639 11.000113 40.625015 11.210901 41 11.586L 48.414001 19C 48.789101 19.374985 48.999886 19.88361 49 20.414L 49 27M 17 27.542L 19.166 29.705999C 19.373581 29.913752 19.661993 30.019751 19.954704 29.995872C 20.247417 29.971992 20.514835 29.82065 20.686001 29.582001L 25 23.542M 31 27L 39 27M 17 37.542L 19.166 39.706001C 19.373581 39.91375 19.661993 40.019753 19.954704 39.995872C 20.247417 39.971992 20.514835 39.820648 20.686001 39.582001L 25 33.542M 31 37L 39 37M 55.759998 40.237999L 40.5 55.5L 33 57L 34.5 49.5L 49.759998 34.237999C 51.41259 32.585938 54.091408 32.585938 55.743999 34.237999L 55.759998 34.256001C 56.554218 35.048752 57.000534 36.12484 57.000534 37.246998C 57.000534 38.36916 56.554218 39.445244 55.759998 40.237999Z"></path></g></g></g><g id="g-root-tx_refining_diljl71rkv289-stroke" data-item-order="0" transform="translate(340, 615)"></g><g id="g-root-sear_4gpsh71rkwfm0-stroke" data-item-order="0" transform="translate(184, 674.7939453125)"><g id="sear_4gpsh71rkwfm0-stroke" fill="none" stroke-linecap="round" stroke-linejoin="round" stroke-miterlimit="4" stroke="#969696" stroke-width="2"><g><path d="M 39 29.982L 39 20.982L 17 20.982L 17 46.98L 29 46.981998M 45 27.982L 45 16.982C 45 15.87743 44.104568 14.982 43 14.982L 34.104 14.982C 33.043873 12.558297 30.649412 10.992139 28.004 10.992139C 25.358589 10.992139 22.964127 12.558297 21.903999 14.982L 13 14.982C 11.895431 14.982 11 15.87743 11 16.982L 11 50.981998C 11 52.086571 11.895431 52.981998 13 52.981998L 31 52.981998M 23 26.982L 33 26.982M 23 32.982002L 33 32.982002M 23 38.982002L 29 38.982002M 35 44.042C 35 49.044594 39.055405 53.099998 44.057999 53.099998C 49.060593 53.099998 53.115997 49.044594 53.115997 44.042C 53.115997 39.039406 49.060593 34.984001 44.057999 34.984001C 39.055405 34.984001 35 39.039406 35 44.042ZM 57 56.981998L 50.504002 50.487999"></path></g></g></g><g id="g-root-tx_finalrev_zpp27f1rkuzuo-stroke" data-item-order="0" transform="translate(340, 687)"></g><g id="g-root-tx_achievin_4gone31ruunm1-stroke" data-item-order="0" transform="translate(309.9999084472656, 15)"></g></g></g></svg>